<svg width="180" height="181" viewBox="0 0 180 181" fill="none" xmlns="http://www.w3.org/2000/svg">
<g filter="url(#filter0_di_330_75)">
<ellipse cx="89.9747" cy="86.5" rx="85.9747" ry="86.5" fill="url(#paint0_linear_330_75)"/>
</g>
<circle cx="90.5" cy="87.5" r="77.5" fill="#141414"/>
<g clip-path="url(#clip0_330_75)">
<path d="M71.508 47.6855C71.508 52.2276 71.508 56.7696 71.508 61.4492C69.5735 61.5333 69.5735 61.5333 67.5998 61.6191C66.7678 61.856 66.7678 61.856 66.5272 62.3094C66.3242 63.1768 66.2855 63.9788 66.5803 64.8264C67.7921 66.114 69.9887 65.7872 71.508 65.8672C71.508 68.8391 71.508 71.8111 71.508 74.873C73.4706 74.873 75.4332 74.873 77.4553 74.873C77.4553 74.3684 77.4553 73.8637 77.4553 73.3438C77.7906 71.9746 78.4687 70.9399 79.643 70.1577C80.8997 69.4286 82.2173 69.2235 83.6395 69.5205C85.2361 69.9992 86.1812 70.8633 86.9709 72.3242C87.3349 73.2672 87.3108 73.8014 87.3108 74.873C90.1705 74.873 93.0303 74.873 95.9768 74.873C95.5792 78.2521 95.5792 78.2521 95.2546 79.4822C95.2179 79.6242 95.1812 79.7662 95.1433 79.9125C94.7907 81.2274 94.3304 82.4676 93.7678 83.709C93.7199 83.8157 93.672 83.9224 93.6227 84.0323C92.9283 85.5594 92.0909 86.938 91.1464 88.3223C87.3656 93.8953 85.1042 100.675 85.0669 107.426C85.0643 107.717 85.0643 107.717 85.0617 108.014C85.0564 108.637 85.0522 109.26 85.048 109.883C85.0449 110.269 85.0417 110.656 85.0384 111.042C85.0268 112.47 85.0166 113.897 85.0062 115.325C84.9817 118.518 84.9571 121.711 84.9319 125C75.3432 125 65.7545 125 55.8752 125C55.8752 120.738 55.8752 116.477 55.8752 112.086C56.7724 112.086 57.6696 112.086 58.594 112.086C58.594 115.506 58.594 118.927 58.594 122.451C66.3883 122.451 74.1826 122.451 82.2131 122.451C82.2131 118.246 82.2131 114.04 82.2131 109.707C73.5216 109.707 64.8301 109.707 55.8752 109.707C55.8752 109.034 55.8752 108.361 55.8752 107.668C55.6348 100.464 53.5586 94.6803 49.8413 88.5469C46.0769 82.3014 43.6777 75.115 45.4191 67.7625C45.4491 67.6417 45.4791 67.5209 45.51 67.3965C45.5419 67.2647 45.5739 67.133 45.6068 66.9972C47.2331 60.5128 51.3898 54.7997 57.1072 51.3176C61.7264 48.5966 66.1101 47.6855 71.508 47.6855ZM54.176 57.2012C54.0332 57.3418 53.8904 57.4824 53.7432 57.6273C50.7767 60.7166 49.0568 64.4684 48.0588 68.5859C48.0133 68.7715 47.9677 68.957 47.9208 69.1481C47.0989 73.3545 47.7788 77.9181 49.4182 81.8398C49.4645 81.9514 49.5108 82.063 49.5586 82.178C50.4736 84.3356 51.6866 86.3279 52.8799 88.3399C56.4439 94.3557 58.1293 100.019 58.594 106.988C61.1734 106.988 63.7528 106.988 66.4104 106.988C66.4104 101.605 66.4104 96.222 66.4104 90.6758C65.401 90.6197 64.3917 90.5636 63.3518 90.5059C62.1847 90.1446 61.4508 89.684 60.803 88.6367C60.1948 87.4383 60.1821 86.307 60.5799 85.0345C60.9808 84.0949 61.6334 83.5448 62.5022 83.0293C63.7359 82.6181 65.325 82.6607 66.506 83.2098C67.6775 83.9007 68.3458 84.8042 68.7893 86.0879C69.0092 87.0677 68.9887 88.0493 68.9941 89.0482C68.9958 89.2422 68.9975 89.4363 68.9992 89.6362C69.0045 90.2761 69.0088 90.916 69.013 91.5559C69.0165 92.0002 69.02 92.4445 69.0237 92.8888C69.0321 93.9376 69.0398 94.9865 69.0471 96.0354C69.0555 97.23 69.0649 98.4246 69.0743 99.6192C69.0936 102.076 69.1117 104.532 69.1291 106.988C69.9702 106.988 70.8114 106.988 71.678 106.988C71.6786 106.737 71.6792 106.486 71.6798 106.227C71.6861 103.854 71.6959 101.482 71.7092 99.1093C71.716 97.8897 71.7215 96.6701 71.724 95.4505C71.7262 94.3867 71.7308 93.323 71.7382 92.2593C71.742 91.6967 71.7444 91.1341 71.7445 90.5715C71.7449 89.9415 71.7496 89.3116 71.7551 88.6816C71.7538 88.4057 71.7538 88.4057 71.7525 88.1242C71.7729 86.6265 72.0443 85.2046 73.0692 84.0594C74.3306 82.9548 75.5288 82.7406 77.1924 82.7791C77.9106 82.8748 78.3518 83.0767 78.9136 83.5231C79.1486 83.7436 79.1486 83.7436 79.4944 83.709C79.6112 83.9337 79.7233 84.161 79.8342 84.3887C79.9253 84.5569 80.0164 84.7251 80.1103 84.8984C80.5808 86.0228 80.5147 87.3363 80.0678 88.4562C79.6011 89.3586 78.9728 89.8228 78.0819 90.2935C76.8886 90.6117 75.6296 90.6033 74.3967 90.6758C74.3967 96.0589 74.3967 101.442 74.3967 106.988C76.9761 106.988 79.5555 106.988 82.2131 106.988C82.313 105.974 82.313 105.974 82.4149 104.939C83.144 98.1346 85.4492 91.8275 89.2289 86.1291C90.9737 83.4857 92.3517 80.7646 92.7483 77.5918C90.0567 77.5918 87.3651 77.5918 84.592 77.5918C84.592 76.3582 84.592 75.1245 84.592 73.8535C83.9039 72.7778 83.9039 72.7778 82.8928 72.1543C82.0615 72.0809 81.5229 72.1988 80.8644 72.7172C79.6159 74.3439 80.174 74.9145 80.174 77.5918C76.4171 77.5918 72.6601 77.5918 68.7893 77.5918C68.7893 74.6199 68.7893 71.6479 68.7893 68.5859C67.8921 68.3616 66.9949 68.1373 66.0705 67.9062C64.7882 67.171 64.1566 66.2427 63.6916 64.8477C63.5315 62.9601 63.733 61.6387 64.9129 60.1217C66.2042 59.1174 67.1122 58.8982 68.7893 58.7305C68.7893 55.9828 68.7893 53.2352 68.7893 50.4043C63.2604 50.4043 58.011 53.4198 54.176 57.2012ZM63.0119 85.918C62.8271 86.3184 62.8271 86.3184 62.842 86.7676C63.1176 87.36 63.3118 87.5905 63.8615 87.957C64.3038 87.9812 64.7267 87.989 65.1678 87.9783C65.2871 87.9767 65.4064 87.9752 65.5292 87.9736C65.823 87.9696 66.1167 87.9635 66.4104 87.957C66.2878 86.7252 66.2878 86.7252 65.6245 85.7268C64.7536 85.243 63.7377 85.0761 63.0119 85.918ZM74.5029 86.587C74.3629 87.0491 74.3902 87.4767 74.3967 87.957C74.8041 87.9801 75.2102 87.9969 75.618 88.0101C75.7325 88.0173 75.8469 88.0244 75.9648 88.0317C76.6359 88.0481 76.9144 87.9816 77.4473 87.5614C77.8315 87.1312 77.8315 87.1312 77.8907 86.587C77.8254 86.0814 77.8254 86.0814 77.5403 85.6843C77.0542 85.3684 76.68 85.3014 76.1012 85.3305C75.3715 85.4947 74.9289 85.9868 74.5029 86.587Z" fill="#CDBE19"/>
<path d="M87.3105 38C95.2224 38 101.567 39.8215 107.361 45.3066C107.512 45.446 107.662 45.5853 107.817 45.7288C109.146 47.0018 109.146 47.0018 109.615 47.8017C110.765 49.7374 112.135 50.3164 114.221 51.0305C115.904 51.6083 117.562 52.2565 119.224 52.8904C119.803 53.1105 120.383 53.3285 120.963 53.546C121.326 53.6827 121.689 53.8194 122.052 53.9561C122.22 54.0187 122.388 54.0812 122.561 54.1457C122.991 54.3085 123.418 54.4782 123.844 54.6523C124.007 54.7172 124.17 54.7822 124.338 54.849C124.929 55.3701 125.114 56.0601 125.375 56.7896C125.437 56.9559 125.499 57.1222 125.563 57.2935C125.768 57.8424 125.969 58.3926 126.17 58.9429C126.311 59.325 126.453 59.7069 126.596 60.0888C126.891 60.8809 127.185 61.6734 127.478 62.4663C128.103 64.1497 128.747 65.8253 129.392 67.501C129.584 67.9993 129.776 68.4978 129.967 68.9963C130.057 69.2307 130.057 69.2307 130.149 69.4699C130.265 69.7725 130.38 70.0753 130.496 70.3783C130.757 71.0657 131.022 71.7509 131.299 72.4322C131.348 72.5551 131.397 72.678 131.448 72.8047C131.577 73.1305 131.71 73.4554 131.842 73.7801C132.15 74.9177 131.743 75.8929 131.338 76.9506C131.287 77.0865 131.236 77.2223 131.184 77.3623C131.073 77.6582 130.961 77.954 130.849 78.2496C130.668 78.7282 130.491 79.208 130.314 79.6881C129.713 81.3103 129.093 82.9199 128.417 84.5125C126.215 89.7076 125.209 94.0294 125.543 99.6816C126.664 99.6816 127.786 99.6816 128.941 99.6816C128.941 105.513 128.941 111.345 128.941 117.354C128.044 117.354 127.147 117.354 126.223 117.354C126.223 112.419 126.223 107.484 126.223 102.4C119.269 102.4 112.316 102.4 105.152 102.4C105.152 109.858 105.152 117.316 105.152 125C104.255 125 103.358 125 102.434 125C102.434 116.645 102.434 108.29 102.434 99.6816C103.555 99.6816 104.677 99.6816 105.832 99.6816C105.889 97.0932 105.392 95.4508 104.248 93.1476C102.504 89.6326 102.399 85.2 103.623 81.5C104.577 78.7936 106.321 75.4689 108.909 73.9887C109.282 73.6952 109.282 73.6952 109.323 73.1578C109.327 72.9469 109.33 72.736 109.334 72.5187C109.342 72.2101 109.342 72.2101 109.35 71.8953C109.352 71.6338 109.355 71.3723 109.358 71.1029C109.372 70.2723 109.386 69.4417 109.4 68.5859C107.494 68.5859 105.587 68.5859 103.623 68.5859C103.581 66.7911 103.581 66.7911 103.572 66.2325C103.536 65.1802 103.404 64.5116 102.773 63.6582C102.08 63.2099 101.587 63.098 100.787 63.2334C100.084 63.4252 99.7564 63.7021 99.375 64.3379C98.7397 65.6085 99.0968 67.1667 99.0351 68.5859C95.166 68.5859 91.2969 68.5859 87.3105 68.5859C87.3105 65.5019 87.3105 62.4178 87.3105 59.2402C86.8058 59.2402 86.3012 59.2402 85.7812 59.2402C84.498 58.9258 83.3699 58.0617 82.625 56.9841C81.9087 55.7506 81.6689 54.5465 81.9832 53.1396C82.4423 51.5837 83.118 50.5349 84.5493 49.7352C85.4884 49.2509 86.14 49.3213 87.3105 49.2148C87.3105 45.5139 87.3105 41.813 87.3105 38ZM90.0293 40.7188C90.0293 44.4196 90.0293 48.1205 90.0293 51.9336C88.9078 51.9336 87.7863 51.9336 86.6308 51.9336C85.3842 52.4356 85.3842 52.4356 84.7617 53.4629C84.5756 54.1574 84.5416 54.5177 84.7935 55.194C85.218 55.8526 85.5384 56.2706 86.291 56.5215C87.5246 56.5215 88.7582 56.5215 90.0293 56.5215C90.0293 59.6056 90.0293 62.6896 90.0293 65.8672C92.104 65.8672 94.1787 65.8672 96.3164 65.8672C96.4846 64.7737 96.4846 64.7737 96.6562 63.6582C97.1626 62.2948 98.003 61.494 99.2688 60.7908C100.767 60.3258 102.256 60.2782 103.694 60.966C104.88 61.6812 105.579 62.6324 106.055 63.9237C106.183 64.5658 106.261 65.2174 106.342 65.8672C107.351 65.8672 108.36 65.8672 109.4 65.8672C109.463 65.2048 109.463 65.2048 109.528 64.5291C109.779 62.2785 110.531 60.9975 112.119 59.4102C110.928 54.6329 108.822 50.6556 105.322 47.1758C105.185 47.0384 105.048 46.9011 104.906 46.7596C100.984 43.0453 95.4216 40.7188 90.0293 40.7188ZM113.139 53.6328C113.169 53.7345 113.2 53.8362 113.231 53.941C113.71 55.5375 114.189 57.134 114.668 58.7305C114.791 58.7309 114.915 58.7313 115.042 58.7318C116.813 58.7999 118.254 59.3413 119.511 60.6208C121.048 62.6169 120.888 64.9339 120.889 67.3301C120.891 67.7005 120.894 68.071 120.897 68.4414C120.905 69.4102 120.908 70.3789 120.911 71.3477C120.914 72.3387 120.921 73.3298 120.928 74.3208C120.941 76.2607 120.949 78.2007 120.955 80.1406C120.058 80.1406 119.161 80.1406 118.236 80.1406C118.237 79.9414 118.239 79.7422 118.24 79.5369C118.25 77.6569 118.258 75.7769 118.263 73.8969C118.265 72.9304 118.269 71.9639 118.275 70.9975C118.28 70.0643 118.283 69.1311 118.285 68.1979C118.286 67.8424 118.287 67.4868 118.29 67.1313C118.294 66.6323 118.294 66.1333 118.294 65.6342C118.296 65.4882 118.298 65.3421 118.3 65.1916C118.294 64.1226 118.147 63.1317 117.428 62.2889C117.327 62.2116 117.226 62.1342 117.121 62.0546C116.968 61.934 116.968 61.934 116.813 61.811C116.053 61.2823 115.223 61.3808 114.328 61.4492C113.483 61.7309 112.919 62.2178 112.459 62.9785C112.06 64.1344 112.087 65.2401 112.109 66.4541C112.119 67.0549 112.118 67.6558 112.12 68.2567C112.123 69.0175 112.129 69.778 112.144 70.5387C112.156 71.1574 112.159 71.7756 112.156 72.3944C112.157 72.6285 112.161 72.8627 112.168 73.0967C112.223 74.9203 112.223 74.9203 111.547 75.6429C111.072 75.9874 110.586 76.2768 110.08 76.5723C107.439 78.7932 105.86 82.1358 105.524 85.5356C105.391 88.0998 105.931 90.4245 107.109 92.7016C107.223 92.9307 107.223 92.9307 107.34 93.1645C107.488 93.4587 107.643 93.75 107.805 94.0368C108.75 95.9229 108.454 97.3588 108.551 99.6816C113.261 99.6816 117.971 99.6816 122.824 99.6816C122.796 98.427 122.768 97.1723 122.739 95.8796C122.76 92.0024 123.519 89.0044 125.084 85.4911C125.918 83.6154 126.637 81.6959 127.361 79.7757C127.589 79.1731 127.822 78.5722 128.055 77.9716C128.197 77.6017 128.339 77.2317 128.48 76.8617C128.547 76.6926 128.613 76.5236 128.682 76.3494C129.277 74.7695 128.897 73.8232 128.308 72.2983C128.244 72.129 128.179 71.9597 128.112 71.7852C127.901 71.2317 127.688 70.6788 127.476 70.1259C127.329 69.7434 127.183 69.361 127.037 68.9785C126.667 68.0121 126.296 67.0461 125.925 66.0802C125.662 65.3942 125.399 64.708 125.136 64.0217C124.747 63.006 124.357 61.9906 123.966 60.9753C123.917 60.8478 123.868 60.7203 123.818 60.5889C123.724 60.3461 123.63 60.1035 123.534 59.8613C123.34 59.3672 123.156 58.8756 122.998 58.3687C122.755 57.5692 122.755 57.5692 122.176 57.0076C122.055 56.959 121.933 56.9105 121.808 56.8605C121.671 56.8046 121.534 56.7487 121.392 56.6911C121.248 56.6351 121.104 56.5792 120.955 56.5215C120.815 56.4653 120.676 56.4092 120.532 56.3514C120.083 56.1722 119.633 55.9972 119.182 55.8232C119.019 55.7601 118.856 55.6969 118.688 55.6318C118.347 55.4997 118.005 55.3678 117.664 55.236C117.14 55.0335 116.615 54.83 116.091 54.6265C115.759 54.4978 115.426 54.3693 115.093 54.2408C114.936 54.1798 114.779 54.1187 114.618 54.0558C114.473 54.0002 114.328 53.9445 114.179 53.8872C114.052 53.8379 113.924 53.7887 113.793 53.7379C113.48 53.6149 113.48 53.6149 113.139 53.6328Z" fill="#CDBE19"/>
<path d="M126.223 119.732C127.12 119.732 128.017 119.732 128.941 119.732C128.941 121.471 128.941 123.209 128.941 125C128.044 125 127.147 125 126.223 125C126.223 123.262 126.223 121.523 126.223 119.732Z" fill="#CDBE19"/>
<path d="M99.5449 51.9336C100.442 51.9336 101.339 51.9336 102.264 51.9336C102.264 52.8308 102.264 53.728 102.264 54.6523C101.366 54.6523 100.469 54.6523 99.5449 54.6523C99.5449 53.7552 99.5449 52.858 99.5449 51.9336Z" fill="#CDBE19"/>
<path d="M94.4473 51.9336C95.3445 51.9336 96.2416 51.9336 97.166 51.9336C97.166 52.8308 97.166 53.728 97.166 54.6523C96.2688 54.6523 95.3716 54.6523 94.4473 54.6523C94.4473 53.7552 94.4473 52.858 94.4473 51.9336Z" fill="#CDBE19"/>
</g>
<defs>
<filter id="filter0_di_330_75" x="0" y="0" width="179.949" height="181" filterUnits="userSpaceOnUse" color-interpolation-filters="sRGB">
<feFlood flood-opacity="0" result="BackgroundImageFix"/>
<feColorMatrix in="SourceAlpha" type="matrix" values="0 0 0 0 0 0 0 0 0 0 0 0 0 0 0 0 0 0 127 0" result="hardAlpha"/>
<feOffset dy="4"/>
<feGaussianBlur stdDeviation="2"/>
<feComposite in2="hardAlpha" operator="out"/>
<feColorMatrix type="matrix" values="0 0 0 0 0 0 0 0 0 0 0 0 0 0 0 0 0 0 0.25 0"/>
<feBlend mode="normal" in2="BackgroundImageFix" result="effect1_dropShadow_330_75"/>
<feBlend mode="normal" in="SourceGraphic" in2="effect1_dropShadow_330_75" result="shape"/>
<feColorMatrix in="SourceAlpha" type="matrix" values="0 0 0 0 0 0 0 0 0 0 0 0 0 0 0 0 0 0 127 0" result="hardAlpha"/>
<feMorphology radius="4" operator="erode" in="SourceAlpha" result="effect2_innerShadow_330_75"/>
<feOffset dx="4" dy="4"/>
<feGaussianBlur stdDeviation="2"/>
<feComposite in2="hardAlpha" operator="arithmetic" k2="-1" k3="1"/>
<feColorMatrix type="matrix" values="0 0 0 0 1 0 0 0 0 1 0 0 0 0 1 0 0 0 0.59 0"/>
<feBlend mode="normal" in2="shape" result="effect2_innerShadow_330_75"/>
</filter>
<linearGradient id="paint0_linear_330_75" x1="89.9747" y1="0" x2="89.9747" y2="173" gradientUnits="userSpaceOnUse">
<stop stop-color="#DECC06"/>
<stop offset="1" stop-color="#9F9205"/>
</linearGradient>
<clipPath id="clip0_330_75">
<rect width="87" height="87" fill="white" transform="translate(45 38)"/>
</clipPath>
</defs>
</svg>
