<svg width="180" height="181" viewBox="0 0 180 181" fill="none" xmlns="http://www.w3.org/2000/svg">
<g filter="url(#filter0_di_321_43)">
<ellipse cx="89.9747" cy="86.5" rx="85.9747" ry="86.5" fill="url(#paint0_linear_321_43)"/>
</g>
<circle cx="90.5" cy="87.5" r="77.5" fill="#141414"/>
<path d="M56.2869 50.1823C53.962 50.6251 51.7478 52.3965 50.696 54.6476L50.0687 55.9761L50.0133 84.2993C49.9764 105.297 50.0133 112.881 50.1609 113.637C50.4746 115.095 51.3418 116.627 52.4858 117.697C54.2203 119.339 56.0654 119.911 59.7189 119.911H61.6009V121.572C61.6009 123.97 62.0807 124.985 63.5384 125.649C64.1657 125.945 64.7746 126 67.5977 126C70.4208 126 71.0297 125.945 71.6571 125.649C73.1147 124.985 73.5945 123.97 73.5945 121.572V119.911H74.9599H76.3253L76.3991 121.811C76.4545 123.509 76.5098 123.804 76.9527 124.469C77.8384 125.797 78.5211 126 82.3775 126C85.2006 126 85.791 125.945 86.4184 125.649C87.9499 124.948 88.3558 124.118 88.3558 121.645V119.911H89.7397H91.1235V121.313C91.1235 122.07 91.2158 123.066 91.3265 123.509C91.5664 124.487 92.5812 125.557 93.5038 125.815C94.371 126.055 100.054 126.055 100.921 125.815C101.844 125.557 102.859 124.487 103.099 123.509C103.209 123.066 103.302 122.07 103.302 121.313V119.911H104.685H106.069V121.609C106.088 124.063 106.586 125.059 108.154 125.723C108.671 125.926 109.575 126 112.066 126C114.557 126 115.461 125.926 115.978 125.723C117.546 125.059 118.044 124.063 118.063 121.609V119.911H119.963C123.598 119.911 125.444 119.339 127.178 117.697C128.304 116.627 129.189 115.095 129.484 113.674C129.632 112.992 129.687 104.522 129.687 84.7975C129.687 61.7514 129.632 56.7326 129.429 55.9576C128.654 53.0054 126.2 50.7358 123.229 50.1638C122.03 49.9424 57.4493 49.9424 56.2869 50.1823ZM124.133 53.5774C124.669 53.8726 125.351 54.4077 125.647 54.7583C126.809 56.1606 126.735 54.3523 126.735 84.8344C126.735 103.175 126.661 112.844 126.551 113.305C126.2 114.56 125.259 115.704 124.078 116.313C123.063 116.83 122.842 116.866 120.535 116.922L118.063 116.996V102.087C118.063 87.9897 118.044 87.1224 117.712 86.4213C116.937 84.7422 116.181 84.4838 112.066 84.4838C107.951 84.4838 107.195 84.7422 106.42 86.4213C106.088 87.1224 106.069 87.9897 106.069 102.05V116.959H104.593H103.136L103.08 111.091L103.025 105.205L102.527 104.467C101.733 103.268 101.051 103.046 97.9691 102.972C93.8175 102.862 92.8026 103.102 91.7878 104.467C91.4188 104.965 91.4003 105.279 91.308 110.925L91.2158 116.866H89.8319H88.448L88.3558 107.253L88.2635 97.6399L87.7653 96.994C86.8981 95.85 86.4368 95.7393 82.4697 95.7393C79.9049 95.7393 78.7609 95.8131 78.3366 95.9977C77.5616 96.3113 76.8051 97.2155 76.5467 98.1011C76.436 98.5255 76.3622 102.197 76.3622 107.862V116.959H74.9968H73.6129L73.5576 113.767C73.5022 110.648 73.4838 110.538 73.004 109.818C72.1922 108.582 71.5648 108.397 68.0775 108.323C63.8705 108.231 62.6896 108.6 61.9515 110.205C61.6563 110.851 61.6009 111.442 61.6009 113.951V116.959H59.4236C56.5821 116.959 55.6411 116.682 54.4417 115.519C52.7995 113.914 52.9287 116.534 52.9287 84.9267C52.9287 54.5184 52.8733 56.2529 53.962 54.8321C54.4786 54.1678 55.7887 53.3191 56.6743 53.1161C57.0065 53.0238 72.0815 52.9869 90.201 52.9869L123.137 53.0238L124.133 53.5774ZM115.018 105.242V122.955H112.066H109.114L109.059 105.426C109.04 95.7762 109.059 87.7867 109.114 87.6575C109.169 87.473 109.889 87.4361 112.103 87.473L115.018 87.5284V105.242ZM85.3666 110.814L85.3113 122.955H82.359H79.4067L79.3514 111.054C79.3329 104.504 79.3514 99.0422 79.4067 98.913C79.4621 98.747 80.2555 98.6916 82.4513 98.6916H85.4035L85.3666 110.814ZM100.109 106.035C100.294 106.146 100.312 108.028 100.202 114.56L100.073 122.955L97.1757 123.011L94.2603 123.066V114.597C94.2603 109.947 94.3157 106.072 94.3895 106.017C94.5555 105.832 99.8327 105.869 100.109 106.035ZM70.55 117.143V122.955H67.5977H64.6454L64.5901 117.328C64.5716 114.228 64.5901 111.589 64.6454 111.46C64.7008 111.276 65.402 111.239 67.6346 111.276L70.55 111.331V117.143Z" fill="#CDBE19"/>
<path d="M59.9955 56.8064C59.1283 57.157 58.9438 58.4117 59.6634 59.1129C60.383 59.8509 61.4348 59.7033 61.8776 58.8177C62.2651 58.0796 62.2282 57.7659 61.6193 57.157C61.0657 56.6035 60.6967 56.5297 59.9955 56.8064Z" fill="#CDBE19"/>
<path d="M65.3644 56.825C64.4971 57.2678 64.3311 58.4303 65.0138 59.113C66.287 60.4046 68.3351 58.5779 67.1911 57.194C66.8036 56.7327 65.8995 56.5482 65.3644 56.825Z" fill="#CDBE19"/>
<path d="M70.5499 57.0278C69.5535 57.895 70.1624 59.5741 71.4725 59.5741C72.7641 59.5741 73.373 57.8027 72.3766 57.0093C71.7492 56.5111 71.1588 56.5111 70.5499 57.0278Z" fill="#CDBE19"/>
<path d="M79.1113 57.1569C78.816 57.4522 78.5762 57.8396 78.5762 58.0057C78.5762 58.4485 79.0744 59.3342 79.4065 59.4634C79.5726 59.5187 88.2448 59.5741 98.67 59.5741C117.583 59.5741 117.638 59.5741 118.136 59.1866C118.782 58.67 118.801 57.7105 118.155 57.0831L117.712 56.6218H98.6884H79.6464L79.1113 57.1569Z" fill="#CDBE19"/>
<path d="M110.572 68.6155C109.318 69.0029 108.229 69.944 107.583 71.1987C107.03 72.2689 106.974 72.5272 107.03 73.5974C107.067 74.3539 107.233 75.0735 107.491 75.5717L107.897 76.3467L103.819 81.384C101.586 84.1517 99.6121 86.6058 99.4276 86.8457C99.1139 87.2331 99.0401 87.2331 98.1544 87.0486C96.8997 86.7903 95.4605 87.104 94.3165 87.879L93.4308 88.4694L90.4416 86.9933L87.434 85.4987V84.6499C87.434 82.731 86.3269 80.9965 84.5371 80.1293C81.0682 78.4133 76.9535 81.1995 77.3594 85.0005C77.4148 85.591 77.4886 86.2183 77.507 86.4397C77.544 86.735 76.769 87.5099 73.9643 89.9086C71.8055 91.7538 70.2556 92.9532 70.0895 92.8978C69.9419 92.8424 69.4806 92.6764 69.0747 92.5288C66.9158 91.7169 64.3695 92.6579 63.1332 94.7614C62.7458 95.4257 62.635 95.9239 62.5612 97.0494C62.4874 98.341 62.5243 98.5993 62.9672 99.5035C64.4248 102.474 68.3181 103.286 70.8091 101.164C72.2668 99.9094 72.8757 97.9351 72.4329 95.887L72.2852 95.2227L75.9756 92.0859L79.6474 88.9307L80.4409 89.3366C82.0092 90.1116 84.3341 89.761 85.6996 88.5248C86.0686 88.1926 86.1055 88.1926 89.1131 89.6688L92.1392 91.1449L92.1576 92.3812C92.1761 93.8019 92.6005 94.7983 93.5969 95.7947C94.501 96.6988 95.4605 97.1048 96.992 97.1786C98.1544 97.2524 98.4496 97.197 99.3169 96.7726C100.479 96.2006 101.347 95.2965 101.863 94.1156C102.343 93.0454 102.269 90.9973 101.716 89.9271L101.328 89.2075L105.627 83.838L109.927 78.4686L111.735 78.4871C113.801 78.4871 114.521 78.2103 115.683 76.974C116.791 75.8116 117.049 75.1658 117.049 73.5051C117.049 72.3427 116.957 71.8629 116.643 71.2725C116.108 70.2761 115.259 69.4458 114.3 68.9476C113.451 68.5047 111.495 68.3387 110.572 68.6155ZM113.174 71.7338C113.82 72.1028 114.281 73.173 114.115 73.8926C114.041 74.1694 113.746 74.6122 113.451 74.9075C113.008 75.3503 112.768 75.4426 112.012 75.4426C111.218 75.4426 110.997 75.3503 110.517 74.8706C110.037 74.4093 109.945 74.1694 109.945 73.4313C109.945 71.5677 111.458 70.7743 113.174 71.7338ZM83.5407 82.9155C84.2419 83.266 84.7401 84.3362 84.5925 85.1297C84.4633 85.8124 83.633 86.6242 82.9134 86.8088C82.2491 86.9748 81.2158 86.5504 80.7914 85.96C80.57 85.6463 80.4224 85.1481 80.4224 84.7053C80.4224 83.1184 82.0831 82.159 83.5407 82.9155ZM98.3389 90.1485C98.874 90.4622 99.4276 91.3848 99.4276 91.9383C99.4276 92.5841 98.874 93.5067 98.3389 93.7835C97.4902 94.2263 96.6045 94.1525 95.9402 93.599C93.9474 91.9199 96.1063 88.82 98.3389 90.1485ZM68.6134 95.4626C70.0895 96.2191 70.0526 98.4148 68.5396 99.1344C67.7646 99.5035 67.4509 99.5035 66.6944 99.1529C65.6058 98.6363 65.1998 97.3815 65.7534 96.2929C66.3069 95.2227 67.4878 94.8721 68.6134 95.4626Z" fill="#CDBE19"/>
<defs>
<filter id="filter0_di_321_43" x="0" y="0" width="179.949" height="181" filterUnits="userSpaceOnUse" color-interpolation-filters="sRGB">
<feFlood flood-opacity="0" result="BackgroundImageFix"/>
<feColorMatrix in="SourceAlpha" type="matrix" values="0 0 0 0 0 0 0 0 0 0 0 0 0 0 0 0 0 0 127 0" result="hardAlpha"/>
<feOffset dy="4"/>
<feGaussianBlur stdDeviation="2"/>
<feComposite in2="hardAlpha" operator="out"/>
<feColorMatrix type="matrix" values="0 0 0 0 0 0 0 0 0 0 0 0 0 0 0 0 0 0 0.25 0"/>
<feBlend mode="normal" in2="BackgroundImageFix" result="effect1_dropShadow_321_43"/>
<feBlend mode="normal" in="SourceGraphic" in2="effect1_dropShadow_321_43" result="shape"/>
<feColorMatrix in="SourceAlpha" type="matrix" values="0 0 0 0 0 0 0 0 0 0 0 0 0 0 0 0 0 0 127 0" result="hardAlpha"/>
<feMorphology radius="4" operator="erode" in="SourceAlpha" result="effect2_innerShadow_321_43"/>
<feOffset dx="4" dy="4"/>
<feGaussianBlur stdDeviation="2"/>
<feComposite in2="hardAlpha" operator="arithmetic" k2="-1" k3="1"/>
<feColorMatrix type="matrix" values="0 0 0 0 1 0 0 0 0 1 0 0 0 0 1 0 0 0 0.59 0"/>
<feBlend mode="normal" in2="shape" result="effect2_innerShadow_321_43"/>
</filter>
<linearGradient id="paint0_linear_321_43" x1="89.9747" y1="0" x2="89.9747" y2="173" gradientUnits="userSpaceOnUse">
<stop stop-color="#DECC06"/>
<stop offset="1" stop-color="#9F9205"/>
</linearGradient>
</defs>
</svg>
