<svg width="180" height="181" viewBox="0 0 180 181" fill="none" xmlns="http://www.w3.org/2000/svg">
<g filter="url(#filter0_di_328_55)">
<ellipse cx="89.9747" cy="86.5" rx="85.9747" ry="86.5" fill="url(#paint0_linear_328_55)"/>
</g>
<circle cx="90.5" cy="87.5" r="77.5" fill="#141414"/>
<path d="M80.854 50.0217C79.4807 50.4563 78.1422 51.4645 77.4122 52.6117C76.5256 53.985 76.3344 54.9932 76.3344 58.0699V60.799L65.7831 60.8512C55.336 60.9033 55.1969 60.9033 54.3973 61.2857C53.3196 61.7725 51.8942 63.1283 51.3901 64.1191C51.1641 64.5537 50.9034 65.3707 50.7991 65.9443C50.5383 67.3697 50.5383 114.581 50.7991 116.007C51.1641 118.023 52.4157 119.675 54.2583 120.579L55.2143 121.048H92.5004H129.787L130.777 120.561C132.603 119.657 133.819 118.041 134.202 116.007C134.463 114.581 134.463 67.3697 134.202 65.9443C134.098 65.3707 133.837 64.5537 133.611 64.1191C133.107 63.1283 131.681 61.7725 130.604 61.2857C129.804 60.9033 129.665 60.9033 119.235 60.8512L108.666 60.799V58.1568C108.666 53.5852 107.867 51.8643 105.016 50.3693L104.234 49.9522L92.7612 49.9174C86.4512 49.9 81.0973 49.9522 80.854 50.0217ZM103.608 53.6895C104.86 54.3152 105.016 54.802 105.016 58.0178V60.8164H92.5004H79.9848V57.983C79.9848 54.7846 80.1239 54.3326 81.3233 53.7068C81.9665 53.3766 82.3315 53.3592 92.4657 53.3418C102.548 53.3418 102.965 53.3592 103.608 53.6895ZM129.474 64.7449C129.734 64.9361 130.134 65.3707 130.36 65.701L130.76 66.2746L130.708 73.4189L130.656 80.5459L130.169 81.9539C128.987 85.4652 126.275 88.1596 122.66 89.4459L121.269 89.9326L110.544 89.9848L99.8012 90.0369V86.9602V83.9008L99.2102 83.3098L98.6192 82.7188H92.5004H86.3817L85.7907 83.3098L85.1997 83.9008V86.9602V90.0369L74.4745 89.9848L63.7319 89.9326L62.3413 89.4459C58.2737 88.0031 55.4577 84.909 54.5364 80.8588C54.154 79.1379 54.1192 66.6397 54.5016 65.8922C54.8145 65.3012 55.4403 64.7102 55.9965 64.4842C56.2747 64.3799 68.8424 64.3277 92.709 64.3451L128.987 64.3799L129.474 64.7449ZM96.2899 91.7926L96.2377 97.2334H92.5004H88.7631L88.711 91.7926L88.6762 86.3691H92.5004H96.3247L96.2899 91.7926ZM57.8043 91.2016C59.2645 92.0881 61.3157 92.9225 62.8106 93.218C63.9405 93.4613 65.8004 93.4961 74.6831 93.4961H85.1997V96.4686C85.1997 99.5279 85.2692 99.9277 85.9645 100.484C86.2948 100.762 86.9206 100.797 92.5004 100.797C98.0803 100.797 98.7061 100.762 99.0364 100.484C99.7317 99.9277 99.8012 99.5279 99.8012 96.4686V93.5135L110.891 93.4613C121.79 93.3918 121.982 93.3918 123.233 93.0094C125.667 92.2619 127.84 90.993 129.665 89.2547L130.743 88.2291V101.927V115.607L130.36 116.285C130.117 116.72 129.717 117.085 129.265 117.311C128.552 117.658 128.187 117.658 92.5004 117.658C56.8135 117.658 56.4485 117.658 55.7358 117.311C55.2838 117.085 54.884 116.72 54.6407 116.285L54.2583 115.607V101.927V88.2465L55.5446 89.4459C56.2573 90.0891 57.2655 90.8887 57.8043 91.2016Z" fill="#CDBE19"/>
<defs>
<filter id="filter0_di_328_55" x="0" y="0" width="179.949" height="181" filterUnits="userSpaceOnUse" color-interpolation-filters="sRGB">
<feFlood flood-opacity="0" result="BackgroundImageFix"/>
<feColorMatrix in="SourceAlpha" type="matrix" values="0 0 0 0 0 0 0 0 0 0 0 0 0 0 0 0 0 0 127 0" result="hardAlpha"/>
<feOffset dy="4"/>
<feGaussianBlur stdDeviation="2"/>
<feComposite in2="hardAlpha" operator="out"/>
<feColorMatrix type="matrix" values="0 0 0 0 0 0 0 0 0 0 0 0 0 0 0 0 0 0 0.25 0"/>
<feBlend mode="normal" in2="BackgroundImageFix" result="effect1_dropShadow_328_55"/>
<feBlend mode="normal" in="SourceGraphic" in2="effect1_dropShadow_328_55" result="shape"/>
<feColorMatrix in="SourceAlpha" type="matrix" values="0 0 0 0 0 0 0 0 0 0 0 0 0 0 0 0 0 0 127 0" result="hardAlpha"/>
<feMorphology radius="4" operator="erode" in="SourceAlpha" result="effect2_innerShadow_328_55"/>
<feOffset dx="4" dy="4"/>
<feGaussianBlur stdDeviation="2"/>
<feComposite in2="hardAlpha" operator="arithmetic" k2="-1" k3="1"/>
<feColorMatrix type="matrix" values="0 0 0 0 1 0 0 0 0 1 0 0 0 0 1 0 0 0 0.59 0"/>
<feBlend mode="normal" in2="shape" result="effect2_innerShadow_328_55"/>
</filter>
<linearGradient id="paint0_linear_328_55" x1="89.9747" y1="0" x2="89.9747" y2="173" gradientUnits="userSpaceOnUse">
<stop stop-color="#DECC06"/>
<stop offset="1" stop-color="#9F9205"/>
</linearGradient>
</defs>
</svg>
